<?xml version="1.0" encoding="UTF-8"?>
<svg width="71" height="71" version="1.1" viewBox="0 0 71 71" xml:space="preserve" xmlns="http://www.w3.org/2000/svg">
<path d="m49.43 49.843c3.771-3.6171 6.0606-8.7349 6.0606-14.353 0-11.044-8.9465-19.99-19.99-19.99s-19.99 8.9465-19.99 19.99 8.9465 19.99 19.99 19.99c0.21164 0 0.44252 0 0.65413-0.01924l15.719 0.038479c-1.6931-1.1352-3.2323-3.2131-2.4435-5.6566z" fill="#cf354f" stroke-width=".64516"/><path d="m29.594 32.605c-1.1159 0-2.0401 0.90491-2.0401 2.0401 0 1.1159 0.90491 2.0388 2.0401 2.0388 1.1159 0 2.0388-0.90368 2.0388-2.0388 0-1.1352-0.92291-2.0593-2.0388-2.0401zm11.832 0c-1.1159 0-2.0401 0.90491-2.0401 2.0401 0 1.1159 0.90491 2.0388 2.0401 2.0388 1.1159 0 2.0388-0.90368 2.0388-2.0388 0-1.1352-0.92291-2.0593-2.0388-2.0401zm-8.7439 9.0349c-0.4066 0.01318-0.8002 0.24708-1.0119 0.6439-0.28858 0.558-0.05679 1.2496 0.52041 1.5575 0.76962 0.40404 1.9617 0.57712 3.193 0.57712 1.3083 0 2.5788-0.19139 3.3292-0.55696 0.5772-0.26936 0.84645-0.96265 0.57712-1.5398-0.26936-0.5772-0.96265-0.84645-1.5398-0.57712-0.962 0.42328-3.6939 0.44218-4.5212 0.0189-0.17438-0.09018-0.36206-0.12948-0.54688-0.12349z" fill="#fff" stroke-width=".64516"/></svg>
