<?xml version="1.0" encoding="UTF-8"?>
<svg width="71" height="71" version="1.1" viewBox="0 0 71 71" xml:space="preserve" xmlns="http://www.w3.org/2000/svg">
<path d="m49.43 49.843c3.771-3.6171 6.0606-8.7349 6.0606-14.353 0-11.044-8.9465-19.99-19.99-19.99s-19.99 8.9465-19.99 19.99 8.9465 19.99 19.99 19.99c0.21164 0 0.44252 0 0.65413-0.01924l15.719 0.038479c-1.6931-1.1352-3.2323-3.2131-2.4435-5.6566z" fill="#5aa02c" stroke-width=".64516"/><path d="m29.594 32.605c-1.1159 0-2.0401 0.90491-2.0401 2.0401 0 1.1159 0.90491 2.0388 2.0401 2.0388 1.1159 0 2.0388-0.90368 2.0388-2.0388 0-1.1352-0.92291-2.0593-2.0388-2.0401zm11.832 0c-1.1159 0-2.0401 0.90491-2.0401 2.0401 0 1.1159 0.90491 2.0388 2.0401 2.0388 1.1159 0 2.0388-0.90368 2.0388-2.0388 0-1.1352-0.92291-2.0593-2.0388-2.0401z" fill="#fff" stroke-width=".64516"/><path d="m32.239 39.676a1.1939 1.1939 0 0 0 0 1.6883l1.5437 1.5437-1.5437 1.5437a1.1939 1.1939 0 0 0 0 1.6883 1.1939 1.1939 0 0 0 1.6883 0l1.5437-1.5437 1.5437 1.5437a1.1939 1.1939 0 0 0 1.6883 0 1.1939 1.1939 0 0 0 0-1.6883l-1.5437-1.5437 1.5437-1.5437a1.1939 1.1939 0 0 0 0-1.6883 1.1939 1.1939 0 0 0-1.6883 0l-1.5437 1.5437-1.5437-1.5437a1.1939 1.1939 0 0 0-1.6883 0z" color="#000000" fill="#fff" stop-color="#000000"/></svg>
