<?xml version="1.0" encoding="UTF-8"?>
<svg width="71" height="71" version="1.1" viewBox="0 0 71 71" xml:space="preserve" xmlns="http://www.w3.org/2000/svg">
<path d="m49.43 49.843c3.771-3.6171 6.0606-8.7349 6.0606-14.353 0-11.044-8.9465-19.99-19.99-19.99s-19.99 8.9465-19.99 19.99 8.9465 19.99 19.99 19.99c0.21164 0 0.44252 0 0.65413-0.01924l15.719 0.038479c-1.6931-1.1352-3.2323-3.2131-2.4435-5.6566z" fill="#b3b3b3" stroke-width=".64516"/><g fill="#fff"><path d="m27.393 32.41a0.80645 0.80645 0 0 0 0 1.1404l1.0427 1.0427-1.0427 1.0427a0.80645 0.80645 0 0 0 0 1.1404 0.80645 0.80645 0 0 0 1.1404 0l1.0427-1.0427 1.0427 1.0427a0.80645 0.80645 0 0 0 1.1404 0 0.80645 0.80645 0 0 0 0-1.1404l-1.0427-1.0427 1.0427-1.0427a0.80645 0.80645 0 0 0 0-1.1404 0.80645 0.80645 0 0 0-1.1404 0l-1.0427 1.0427-1.0427-1.0427a0.80645 0.80645 0 0 0-1.1404 0z" color="#000000" stop-color="#000000"/><path d="m39.304 32.41a0.80645 0.80645 0 0 0 0 1.1404l1.0427 1.0427-1.0427 1.0427a0.80645 0.80645 0 0 0 0 1.1404 0.80645 0.80645 0 0 0 1.1404 0l1.0427-1.0427 1.0427 1.0427a0.80645 0.80645 0 0 0 1.1404 0 0.80645 0.80645 0 0 0 0-1.1404l-1.0427-1.0427 1.0427-1.0427a0.80645 0.80645 0 0 0 0-1.1404 0.80645 0.80645 0 0 0-1.1404 0l-1.0427 1.0427-1.0427-1.0427a0.80645 0.80645 0 0 0-1.1404 0z" color="#000000" stop-color="#000000"/><circle cx="35.367" cy="42.979" r="4" stroke-width="2.0005"/></g></svg>
